<svg width="500" height="420" viewBox="0 0 500 420" fill="none" xmlns="http://www.w3.org/2000/svg">
<g opacity="0.6">
<path d="M323.514 27.8631C323.514 32.3572 325.26 36.6673 328.366 39.8451C331.472 43.0229 335.685 44.8081 340.079 44.8081C344.472 44.8081 348.685 43.0229 351.791 39.8451C354.898 36.6673 356.643 32.3572 356.643 27.8631C356.643 23.3691 354.898 19.059 351.791 15.8812C348.685 12.7034 344.472 10.9182 340.079 10.9182C335.685 10.9182 331.472 12.7034 328.366 15.8812C325.26 19.059 323.514 23.3691 323.514 27.8631ZM356.557 99.2243C356.557 101.796 357.556 104.262 359.333 106.08C361.111 107.898 363.521 108.92 366.035 108.92C368.548 108.92 370.959 107.898 372.736 106.08C374.514 104.262 375.512 101.796 375.512 99.2243C375.512 96.6529 374.514 94.1869 372.736 92.3686C370.959 90.5504 368.548 89.5289 366.035 89.5289C363.521 89.5289 361.111 90.5504 359.333 92.3686C357.556 94.1869 356.557 96.6529 356.557 99.2243ZM53.4495 158.619C53.4495 161.19 54.448 163.657 56.2253 165.475C58.0027 167.293 60.4133 168.314 62.9269 168.314C65.4405 168.314 67.8511 167.293 69.6285 165.475C71.4059 163.657 72.4044 161.19 72.4044 158.619C72.4044 156.048 71.4059 153.582 69.6285 151.763C67.8511 149.945 65.4405 148.924 62.9269 148.924C60.4133 148.924 58.0027 149.945 56.2253 151.763C54.448 153.582 53.4495 156.048 53.4495 158.619Z" fill="#4672ED"/>
<path d="M328.366 39.8451C325.26 36.6673 323.514 32.3572 323.514 27.8631C323.514 23.3691 325.26 19.059 328.366 15.8812C331.472 12.7034 335.685 10.9182 340.079 10.9182C344.472 10.9182 348.685 12.7034 351.791 15.8812C354.898 19.059 356.643 23.3691 356.643 27.8631C356.643 32.3572 354.898 36.6673 351.791 39.8451C348.685 43.0229 344.472 44.8081 340.079 44.8081C335.685 44.8081 331.472 43.0229 328.366 39.8451Z" fill="#4672ED"/>
<path d="M323.514 27.8631C323.514 32.3572 325.26 36.6673 328.366 39.8451C331.472 43.0229 335.685 44.8081 340.079 44.8081C344.472 44.8081 348.685 43.0229 351.791 39.8451C354.898 36.6673 356.643 32.3572 356.643 27.8631C356.643 23.3691 354.898 19.059 351.791 15.8812C348.685 12.7034 344.472 10.9182 340.079 10.9182C335.685 10.9182 331.472 12.7034 328.366 15.8812C325.26 19.059 323.514 23.3691 323.514 27.8631ZM356.557 99.2243C356.557 101.796 357.556 104.262 359.333 106.08C361.111 107.898 363.521 108.92 366.035 108.92C368.548 108.92 370.959 107.898 372.736 106.08C374.514 104.262 375.512 101.796 375.512 99.2243C375.512 96.6529 374.514 94.1869 372.736 92.3686C370.959 90.5504 368.548 89.5289 366.035 89.5289C363.521 89.5289 361.111 90.5504 359.333 92.3686C357.556 94.1869 356.557 96.6529 356.557 99.2243ZM53.4495 158.619C53.4495 161.19 54.448 163.657 56.2253 165.475C58.0027 167.293 60.4133 168.314 62.9269 168.314C65.4405 168.314 67.8511 167.293 69.6285 165.475C71.4059 163.657 72.4044 161.19 72.4044 158.619C72.4044 156.048 71.4059 153.582 69.6285 151.763C67.8511 149.945 65.4405 148.924 62.9269 148.924C60.4133 148.924 58.0027 149.945 56.2253 151.763C54.448 153.582 53.4495 156.048 53.4495 158.619Z" stroke="#0D041A" stroke-linecap="round" stroke-linejoin="round"/>
<path d="M328.366 39.8451C325.26 36.6673 323.514 32.3572 323.514 27.8631C323.514 23.3691 325.26 19.059 328.366 15.8812C331.472 12.7034 335.685 10.9182 340.079 10.9182C344.472 10.9182 348.685 12.7034 351.791 15.8812C354.898 19.059 356.643 23.3691 356.643 27.8631C356.643 32.3572 354.898 36.6673 351.791 39.8451C348.685 43.0229 344.472 44.8081 340.079 44.8081C335.685 44.8081 331.472 43.0229 328.366 39.8451Z" stroke="#0D041A" stroke-linecap="round" stroke-linejoin="round"/>
<path d="M267.93 287.541C267.93 287.541 294.655 297.236 315.147 287.541C323.204 283.448 330.066 277.257 335.042 269.591C340.018 261.925 342.933 253.053 343.494 243.868C345.031 229.718 364.754 223.691 371.841 243.868C376.452 258.861 376.181 274.979 371.069 289.801C365.957 304.623 356.281 317.347 343.494 326.06C327.816 335.362 310.176 340.656 292.071 341.492C273.966 342.329 255.931 338.683 239.498 330.864C214.31 317.762 267.93 287.541 267.93 287.541ZM141.564 287.541C141.564 287.541 114.754 296.974 93.9207 287.541C85.8634 283.448 79.0017 277.257 74.0256 269.591C69.0495 261.925 66.1344 253.053 65.5737 243.868C64.0368 229.718 44.3134 223.691 37.2267 243.868C32.6158 258.861 32.8866 274.979 37.9984 289.801C43.1103 304.623 52.7869 317.347 65.5737 326.06C81.2511 335.362 98.8914 340.656 116.996 341.492C135.102 342.329 153.136 338.683 169.57 330.864C195.099 317.762 141.564 287.541 141.564 287.541Z" fill="#0A3BC2"/>
<path d="M239.498 331.039L242.999 332.698C250.668 325.746 259.024 319.628 267.93 314.443C267.93 314.443 294.655 324.051 315.147 314.443C323.204 310.351 330.066 304.16 335.042 296.493C340.018 288.827 342.933 279.955 343.494 270.771C345.031 256.621 364.754 250.594 371.841 270.771C372.736 273.298 373.421 275.899 373.89 278.544C376.138 266.911 375.433 254.881 371.841 243.606C364.754 223.429 345.031 229.456 343.494 243.606C342.933 252.791 340.018 261.662 335.042 269.329C330.066 276.995 323.204 283.186 315.147 287.279C294.655 296.974 267.93 287.279 267.93 287.279C267.93 287.279 214.31 317.762 239.498 331.039ZM37.5684 271.207C44.6552 251.03 64.3785 257.057 65.9154 271.207C66.5154 280.28 69.4129 289.037 74.3231 296.618C79.2333 304.198 85.9871 310.341 93.9209 314.443C114.413 324.051 141.223 314.443 141.223 314.443C150.104 319.568 158.457 325.596 166.154 332.436L169.57 330.777C195.185 317.5 141.223 287.104 141.223 287.104C141.223 287.104 114.754 296.974 93.9209 287.541C85.8636 283.448 79.0019 277.257 74.0258 269.591C69.0497 261.925 66.1346 253.053 65.5739 243.868C64.037 229.718 44.3136 223.691 37.2269 243.868C33.7192 255.16 33.015 267.167 35.1777 278.806C35.8448 276.232 36.6428 273.696 37.5684 271.207Z" fill="#4672ED"/>
<path d="M267.93 287.541C267.93 287.541 294.655 297.236 315.147 287.541C323.204 283.448 330.066 277.257 335.042 269.591C340.018 261.925 342.933 253.053 343.494 243.868C345.031 229.718 364.754 223.691 371.841 243.868C376.452 258.861 376.181 274.979 371.069 289.801C365.957 304.623 356.281 317.347 343.494 326.06C327.816 335.362 310.176 340.656 292.071 341.492C273.966 342.329 255.931 338.683 239.498 330.864C214.31 317.762 267.93 287.541 267.93 287.541ZM141.564 287.541C141.564 287.541 114.754 296.974 93.9207 287.541C85.8634 283.448 79.0017 277.257 74.0256 269.591C69.0495 261.925 66.1344 253.053 65.5737 243.868C64.0368 229.718 44.3134 223.691 37.2267 243.868C32.6158 258.861 32.8866 274.979 37.9984 289.801C43.1103 304.623 52.7869 317.347 65.5737 326.06C81.2511 335.362 98.8914 340.656 116.996 341.492C135.102 342.329 153.136 338.683 169.57 330.864C195.099 317.762 141.564 287.541 141.564 287.541Z" stroke="#0A3BC2" stroke-linecap="round" stroke-linejoin="round"/>
<path d="M313.439 240.724C313.439 270.213 301.988 298.495 281.604 319.347C261.22 340.2 233.574 351.914 204.747 351.914C175.92 351.914 148.274 340.2 127.891 319.347C107.507 298.495 96.0554 270.213 96.0554 240.724C96.0554 164.646 144.723 119.925 204.747 119.925C264.771 119.925 313.439 164.646 313.439 240.724Z" fill="#4672ED"/>
<path d="M204.918 158.619C259.051 158.619 303.876 195.129 312.073 258.28C313.057 252.511 313.571 246.668 313.61 240.811C313.61 164.733 264.942 120.012 204.918 120.012C144.894 120.012 96.0554 164.646 96.0554 240.724C96.1081 246.576 96.5933 252.416 97.5069 258.193C105.704 195.129 150.529 158.619 204.918 158.619Z" fill="#0A3BC2"/>
<path d="M313.439 240.724C313.439 270.213 301.988 298.495 281.604 319.347C261.22 340.2 233.574 351.914 204.747 351.914C175.92 351.914 148.274 340.2 127.891 319.347C107.507 298.495 96.0554 270.213 96.0554 240.724C96.0554 164.646 144.723 119.925 204.747 119.925C264.771 119.925 313.439 164.646 313.439 240.724Z" stroke="#0A3BC2" stroke-linecap="round" stroke-linejoin="round"/>
<path d="M261.441 298.808C244.365 296.712 234.29 318.112 204.747 318.112C175.205 318.112 165.301 296.974 148.053 298.808C143.194 299.872 138.611 301.979 134.607 304.991C130.603 308.002 127.271 311.849 124.829 316.277C135.008 327.573 147.365 336.589 161.12 342.756C174.875 348.922 189.729 352.106 204.747 352.106C219.765 352.106 234.62 348.922 248.375 342.756C262.13 336.589 274.487 327.573 284.665 316.277C282.224 311.849 278.891 308.002 274.888 304.991C270.884 301.979 266.301 299.872 261.441 298.808Z" fill="#0A3BC2" stroke="#0A3BC2" stroke-linecap="round" stroke-linejoin="round"/>
<path d="M189.609 348.759C189.609 348.759 181.498 385.881 127.963 385.881C74.4283 385.881 53.3388 349.982 51.8873 330.242C50.4358 310.502 72.2084 295.915 88.0895 315.393C111.057 343.518 129.756 340.112 142.478 322.818C155.2 305.523 189.609 348.759 189.609 348.759Z" fill="#0A3BC2"/>
<path d="M53.8764 331.912L56.694 333.397C102.971 361.522 140.796 358.116 166.411 340.821C170.852 338.136 175.939 336.775 181.096 336.891C169.911 325.449 152.493 310.687 144.211 322.392C131.489 339.861 112.79 343.092 89.8224 314.967C73.9413 295.489 52.0834 309.989 53.6203 329.816C53.6687 330.519 53.7542 331.219 53.8764 331.912Z" fill="#4672ED"/>
<path d="M191.342 348.683C191.342 348.683 183.231 385.804 129.696 385.804C76.1612 385.804 55.0717 349.905 53.6202 330.165C52.1687 310.425 73.9413 295.839 89.8224 315.317C112.79 343.442 131.489 340.035 144.211 322.741C156.933 305.447 191.342 348.683 191.342 348.683Z" stroke="#0A3BC2" stroke-linecap="round" stroke-linejoin="round"/>
<path d="M216.334 348.759C216.334 348.759 224.872 385.881 277.98 385.881C331.088 385.881 352.604 349.982 354.141 330.242C355.678 310.502 333.735 295.915 317.854 315.393C294.886 343.518 276.187 340.112 263.465 322.818C250.743 305.523 216.334 348.759 216.334 348.759Z" fill="#0A3BC2"/>
<path d="M355.618 331.912L352.715 333.397C306.438 361.522 268.699 358.116 243.084 340.821C238.639 338.145 233.555 336.784 228.398 336.891C239.583 325.449 257.001 310.687 265.198 322.392C277.92 339.861 296.619 343.092 319.587 314.967C335.468 295.489 357.411 309.989 355.874 329.816L355.618 331.912Z" fill="#4672ED"/>
<path d="M218.067 348.683C218.067 348.683 226.605 385.804 279.713 385.804C332.821 385.804 354.337 349.905 355.874 330.165C357.411 310.425 335.468 295.839 319.587 315.317C296.619 343.442 277.92 340.035 265.198 322.741C252.476 305.447 218.067 348.683 218.067 348.683Z" stroke="#0A3BC2" stroke-linecap="round" stroke-linejoin="round"/>
<path d="M162.141 250.419C162.141 252.99 163.14 255.456 164.917 257.275C166.695 259.093 169.105 260.114 171.619 260.114C174.132 260.114 176.543 259.093 178.32 257.275C180.098 255.456 181.096 252.99 181.096 250.419C181.096 247.848 180.098 245.382 178.32 243.563C176.543 241.745 174.132 240.724 171.619 240.724C169.105 240.724 166.695 241.745 164.917 243.563C163.14 245.382 162.141 247.848 162.141 250.419ZM228.313 250.419C228.313 252.99 229.311 255.456 231.089 257.275C232.866 259.093 235.277 260.114 237.79 260.114C240.304 260.114 242.714 259.093 244.492 257.275C246.269 255.456 247.268 252.99 247.268 250.419C247.268 247.848 246.269 245.382 244.492 243.563C242.714 241.745 240.304 240.724 237.79 240.724C235.277 240.724 232.866 241.745 231.089 243.563C229.311 245.382 228.313 247.848 228.313 250.419Z" fill="#0D041A" stroke="#0D041A" stroke-linecap="round" stroke-linejoin="round"/>
<path d="M261.441 274.614C261.441 275.761 261.808 276.897 262.52 277.956C263.232 279.016 264.276 279.979 265.593 280.79C266.909 281.601 268.471 282.244 270.191 282.683C271.91 283.122 273.753 283.348 275.615 283.348C277.476 283.348 279.319 283.122 281.039 282.683C282.758 282.244 284.321 281.601 285.637 280.79C286.953 279.979 287.997 279.016 288.709 277.956C289.422 276.897 289.788 275.761 289.788 274.614C289.788 272.297 288.295 270.076 285.637 268.437C282.979 266.799 279.374 265.879 275.615 265.879C271.856 265.879 268.251 266.799 265.593 268.437C262.935 270.076 261.441 272.297 261.441 274.614ZM119.706 274.614C119.706 276.93 121.2 279.152 123.858 280.79C126.516 282.428 130.121 283.348 133.88 283.348C137.639 283.348 141.244 282.428 143.902 280.79C146.56 279.152 148.053 276.93 148.053 274.614C148.053 272.297 146.56 270.076 143.902 268.437C141.244 266.799 137.639 265.879 133.88 265.879C130.121 265.879 126.516 266.799 123.858 268.437C121.2 270.076 119.706 272.297 119.706 274.614Z" fill="#0A3BC2"/>
<path d="M323.514 145.343C323.514 147.914 324.513 150.38 326.29 152.198C328.068 154.016 330.478 155.038 332.992 155.038C335.505 155.038 337.916 154.016 339.693 152.198C341.471 150.38 342.469 147.914 342.469 145.343C342.469 142.771 341.471 140.305 339.693 138.487C337.916 136.669 335.505 135.647 332.992 135.647C330.478 135.647 328.068 136.669 326.29 138.487C324.513 140.305 323.514 142.771 323.514 145.343Z" fill="#4672ED" stroke="#0D041A" stroke-linecap="round" stroke-linejoin="round"/>
<path opacity="0.15" d="M96.0554 393.84C96.0554 395.744 98.8668 397.63 104.329 399.389C109.791 401.148 117.798 402.746 127.891 404.093C137.984 405.439 149.966 406.507 163.153 407.236C176.34 407.964 190.474 408.339 204.747 408.339C219.021 408.339 233.155 407.964 246.342 407.236C259.529 406.507 271.511 405.439 281.604 404.093C291.697 402.746 299.703 401.148 305.166 399.389C310.628 397.63 313.439 395.744 313.439 393.84C313.439 391.936 310.628 390.051 305.166 388.291C299.703 386.532 291.697 384.934 281.604 383.588C271.511 382.241 259.529 381.173 246.342 380.444C233.155 379.716 219.021 379.341 204.747 379.341C190.474 379.341 176.34 379.716 163.153 380.444C149.966 381.173 137.984 382.241 127.891 383.588C117.798 384.934 109.791 386.532 104.329 388.291C98.8668 390.051 96.0554 391.936 96.0554 393.84Z" fill="#0A3BC2"/>
</g>
<g opacity="0.6">
<path d="M395.902 295.834C395.902 297.182 396.425 298.475 397.357 299.428C398.289 300.382 399.553 300.917 400.871 300.917C402.189 300.917 403.453 300.382 404.385 299.428C405.317 298.475 405.84 297.182 405.84 295.834C405.84 294.486 405.317 293.193 404.385 292.239C403.453 291.286 402.189 290.75 400.871 290.75C399.553 290.75 398.289 291.286 397.357 292.239C396.425 293.193 395.902 294.486 395.902 295.834ZM393.084 321.356C393.084 322.128 393.384 322.867 393.917 323.413C394.45 323.958 395.173 324.265 395.927 324.265C396.681 324.265 397.404 323.958 397.938 323.413C398.471 322.867 398.77 322.128 398.77 321.356C398.77 320.585 398.471 319.845 397.938 319.3C397.404 318.754 396.681 318.448 395.927 318.448C395.173 318.448 394.45 318.754 393.917 319.3C393.384 319.845 393.084 320.585 393.084 321.356Z" fill="#4672ED" stroke="#0D041A" stroke-linecap="round" stroke-linejoin="round"/>
<path d="M457.428 360.033C457.428 360.033 465.446 362.941 471.593 360.033C474.01 358.805 476.069 356.948 477.562 354.648C479.055 352.348 479.929 349.686 480.097 346.931C480.558 342.686 486.475 340.878 488.601 346.931C489.985 351.429 489.904 356.264 488.37 360.711C486.836 365.157 483.933 368.975 480.097 371.589C475.394 374.379 470.102 375.967 464.671 376.218C459.239 376.469 453.829 375.375 448.899 373.03C441.342 369.099 457.428 360.033 457.428 360.033ZM419.519 360.033C419.519 360.033 411.475 362.863 405.225 360.033C402.808 358.805 400.75 356.948 399.257 354.648C397.764 352.348 396.89 349.686 396.721 346.931C396.26 342.686 390.343 340.878 388.217 346.931C386.834 351.429 386.915 356.264 388.449 360.711C389.982 365.157 392.885 368.975 396.721 371.589C401.425 374.379 406.717 375.967 412.148 376.218C417.58 376.469 422.99 375.375 427.92 373.03C435.579 369.099 419.519 360.033 419.519 360.033Z" fill="#0A3BC2"/>
<path d="M448.899 373.082L449.949 373.58C452.25 371.494 454.756 369.659 457.428 368.103C457.428 368.103 465.446 370.986 471.593 368.103C474.01 366.876 476.069 365.018 477.562 362.718C479.055 360.419 479.929 357.757 480.097 355.002C480.558 350.757 486.475 348.949 488.601 355.002C488.87 355.76 489.076 356.54 489.216 357.334C489.891 353.844 489.679 350.235 488.601 346.852C486.475 340.799 480.558 342.607 480.097 346.852C479.929 349.608 479.055 352.269 477.562 354.569C476.069 356.869 474.01 358.726 471.593 359.954C465.446 362.863 457.428 359.954 457.428 359.954C457.428 359.954 441.342 369.099 448.899 373.082ZM388.32 355.133C390.446 349.08 396.363 350.888 396.824 355.133C397.004 357.855 397.873 360.482 399.346 362.756C400.819 365.03 402.845 366.873 405.225 368.103C411.373 370.986 419.416 368.103 419.416 368.103C422.08 369.641 424.586 371.449 426.896 373.501L427.92 373.004C435.605 369.021 419.416 359.902 419.416 359.902C419.416 359.902 411.475 362.863 405.225 360.033C402.808 358.805 400.75 356.948 399.257 354.648C397.764 352.348 396.89 349.686 396.721 346.931C396.26 342.686 390.343 340.878 388.217 346.931C387.165 350.318 386.954 353.921 387.602 357.412C387.803 356.64 388.042 355.879 388.32 355.133Z" fill="#4672ED"/>
<path d="M457.428 360.033C457.428 360.033 465.446 362.941 471.593 360.033C474.01 358.805 476.069 356.948 477.562 354.648C479.055 352.348 479.929 349.686 480.097 346.931C480.558 342.686 486.475 340.878 488.601 346.931C489.985 351.429 489.904 356.264 488.37 360.711C486.836 365.157 483.933 368.975 480.097 371.589C475.394 374.379 470.102 375.967 464.671 376.218C459.239 376.469 453.829 375.375 448.899 373.03C441.342 369.099 457.428 360.033 457.428 360.033ZM419.519 360.033C419.519 360.033 411.475 362.863 405.225 360.033C402.808 358.805 400.75 356.948 399.257 354.648C397.764 352.348 396.89 349.686 396.721 346.931C396.26 342.686 390.343 340.878 388.217 346.931C386.834 351.429 386.915 356.264 388.449 360.711C389.982 365.157 392.885 368.975 396.721 371.589C401.425 374.379 406.717 375.967 412.148 376.218C417.58 376.469 422.99 375.375 427.92 373.03C435.579 369.099 419.519 360.033 419.519 360.033Z" stroke="#0A3BC2" stroke-linecap="round" stroke-linejoin="round"/>
<path d="M471.081 345.988C471.081 354.834 467.646 363.319 461.53 369.575C455.415 375.83 447.121 379.345 438.473 379.345C429.825 379.345 421.531 375.83 415.416 369.575C409.301 363.319 405.866 354.834 405.866 345.988C405.866 323.164 420.466 309.748 438.473 309.748C456.481 309.748 471.081 323.164 471.081 345.988Z" fill="#4672ED"/>
<path d="M438.525 321.356C454.764 321.356 468.212 332.309 470.671 351.255C470.966 349.524 471.121 347.771 471.132 346.014C471.132 323.19 456.532 309.774 438.525 309.774C420.517 309.774 405.866 323.164 405.866 345.988C405.882 347.743 406.027 349.495 406.301 351.228C408.76 332.309 422.208 321.356 438.525 321.356Z" fill="#0A3BC2"/>
<path d="M471.081 345.988C471.081 354.834 467.646 363.319 461.53 369.575C455.415 375.83 447.121 379.345 438.473 379.345C429.825 379.345 421.531 375.83 415.416 369.575C409.301 363.319 405.866 354.834 405.866 345.988C405.866 323.164 420.466 309.748 438.473 309.748C456.481 309.748 471.081 323.164 471.081 345.988Z" stroke="#0A3BC2" stroke-linecap="round" stroke-linejoin="round"/>
<path d="M455.482 363.413C450.359 362.784 447.336 369.204 438.473 369.204C429.611 369.204 426.639 362.863 421.465 363.413C420.007 363.732 418.632 364.364 417.431 365.268C416.23 366.171 415.23 367.325 414.498 368.654C417.552 372.043 421.259 374.747 425.385 376.597C429.511 378.447 433.968 379.402 438.473 379.402C442.979 379.402 447.435 378.447 451.562 376.597C455.688 374.747 459.395 372.043 462.449 368.654C461.716 367.325 460.717 366.171 459.515 365.268C458.314 364.364 456.939 363.732 455.482 363.413Z" fill="#0A3BC2" stroke="#0A3BC2" stroke-linecap="round" stroke-linejoin="round"/>
<path d="M433.932 378.398C433.932 378.398 431.499 389.535 415.438 389.535C399.378 389.535 393.051 378.765 392.615 372.843C392.18 366.921 398.712 362.545 403.476 368.388C410.366 376.826 415.976 375.804 419.793 370.616C423.609 365.427 433.932 378.398 433.932 378.398Z" fill="#0A3BC2"/>
<path d="M393.212 373.344L394.057 373.79C407.941 382.227 419.288 381.205 426.972 376.017C428.305 375.211 429.831 374.803 431.378 374.838C428.023 371.405 422.797 366.977 420.312 370.488C416.496 375.729 410.886 376.698 403.996 368.261C399.232 362.417 392.674 366.767 393.135 372.715C393.15 372.926 393.175 373.136 393.212 373.344Z" fill="#4672ED"/>
<path d="M434.452 378.375C434.452 378.375 432.019 389.512 415.958 389.512C399.898 389.512 393.571 378.742 393.135 372.82C392.7 366.898 399.232 362.522 403.996 368.365C410.886 376.803 416.496 375.781 420.313 370.593C424.129 365.404 434.452 378.375 434.452 378.375Z" stroke="#0A3BC2" stroke-linecap="round" stroke-linejoin="round"/>
<path d="M441.949 378.398C441.949 378.398 444.511 389.535 460.443 389.535C476.376 389.535 482.83 378.765 483.292 372.843C483.753 366.921 477.17 362.545 472.405 368.388C465.515 376.826 459.905 375.804 456.089 370.616C452.272 365.427 441.949 378.398 441.949 378.398Z" fill="#0A3BC2"/>
<path d="M483.735 373.344L482.864 373.79C468.98 382.227 457.659 381.205 449.974 376.017C448.641 375.214 447.116 374.806 445.569 374.838C448.924 371.405 454.15 366.977 456.609 370.488C460.425 375.729 466.035 376.698 472.925 368.261C477.69 362.417 484.272 366.767 483.811 372.715L483.735 373.344Z" fill="#4672ED"/>
<path d="M442.469 378.375C442.469 378.375 445.031 389.512 460.963 389.512C476.895 389.512 483.35 378.742 483.811 372.82C484.273 366.898 477.69 362.522 472.925 368.365C466.035 376.803 460.425 375.781 456.609 370.593C452.792 365.404 442.469 378.375 442.469 378.375Z" stroke="#0A3BC2" stroke-linecap="round" stroke-linejoin="round"/>
<path d="M425.692 348.896C425.692 349.668 425.991 350.407 426.524 350.953C427.058 351.498 427.781 351.805 428.535 351.805C429.289 351.805 430.012 351.498 430.545 350.953C431.079 350.407 431.378 349.668 431.378 348.896C431.378 348.125 431.079 347.385 430.545 346.84C430.012 346.294 429.289 345.988 428.535 345.988C427.781 345.988 427.058 346.294 426.524 346.84C425.991 347.385 425.692 348.125 425.692 348.896ZM445.543 348.896C445.543 349.668 445.843 350.407 446.376 350.953C446.909 351.498 447.632 351.805 448.386 351.805C449.14 351.805 449.864 351.498 450.397 350.953C450.93 350.407 451.23 349.668 451.23 348.896C451.23 348.125 450.93 347.385 450.397 346.84C449.864 346.294 449.14 345.988 448.386 345.988C447.632 345.988 446.909 346.294 446.376 346.84C445.843 347.385 445.543 348.125 445.543 348.896Z" fill="#0D041A" stroke="#0D041A" stroke-linecap="round" stroke-linejoin="round"/>
<path d="M455.482 356.155C455.482 356.499 455.592 356.839 455.805 357.157C456.019 357.475 456.332 357.764 456.727 358.007C457.122 358.251 457.591 358.444 458.106 358.575C458.622 358.707 459.175 358.775 459.734 358.775C460.292 358.775 460.845 358.707 461.361 358.575C461.877 358.444 462.345 358.251 462.74 358.007C463.135 357.764 463.448 357.475 463.662 357.157C463.876 356.839 463.986 356.499 463.986 356.155C463.986 355.46 463.538 354.793 462.74 354.302C461.943 353.81 460.861 353.534 459.734 353.534C458.606 353.534 457.524 353.81 456.727 354.302C455.93 354.793 455.482 355.46 455.482 356.155ZM412.961 356.155C412.961 356.85 413.409 357.516 414.206 358.007C415.004 358.499 416.085 358.775 417.213 358.775C418.341 358.775 419.422 358.499 420.22 358.007C421.017 357.516 421.465 356.85 421.465 356.155C421.465 355.46 421.017 354.793 420.22 354.302C419.422 353.81 418.341 353.534 417.213 353.534C416.085 353.534 415.004 353.81 414.206 354.302C413.409 354.793 412.961 355.46 412.961 356.155Z" fill="#0A3BC2"/>
<path d="M474.104 317.373C474.104 318.145 474.403 318.884 474.936 319.43C475.469 319.975 476.193 320.282 476.947 320.282C477.701 320.282 478.424 319.975 478.957 319.43C479.49 318.884 479.79 318.145 479.79 317.373C479.79 316.602 479.49 315.862 478.957 315.317C478.424 314.771 477.701 314.465 476.947 314.465C476.193 314.465 475.469 314.771 474.936 315.317C474.403 315.862 474.104 316.602 474.104 317.373Z" fill="#4672ED" stroke="#0D041A" stroke-linecap="round" stroke-linejoin="round"/>
<path opacity="0.15" d="M405.866 391.923C405.866 392.494 406.709 393.059 408.348 393.587C409.987 394.115 412.388 394.594 415.416 394.998C418.444 395.402 422.039 395.723 425.995 395.941C429.951 396.16 434.191 396.272 438.473 396.272C442.756 396.272 446.996 396.16 450.952 395.941C454.908 395.723 458.503 395.402 461.53 394.998C464.558 394.594 466.96 394.115 468.599 393.587C470.238 393.059 471.081 392.494 471.081 391.923C471.081 391.351 470.238 390.786 468.599 390.258C466.96 389.73 464.558 389.251 461.53 388.847C458.503 388.443 454.908 388.122 450.952 387.904C446.996 387.685 442.756 387.573 438.473 387.573C434.191 387.573 429.951 387.685 425.995 387.904C422.039 388.122 418.444 388.443 415.416 388.847C412.388 389.251 409.987 389.73 408.348 390.258C406.709 390.786 405.866 391.351 405.866 391.923Z" fill="#0A3BC2"/>
</g>
</svg>
