<svg width="200" height="200" viewBox="0 0 200 200" fill="none" xmlns="http://www.w3.org/2000/svg">
<circle cx="100" cy="100" r="100" fill="#4672ED" fill-opacity="0.1"/>
<path d="M143.406 25.198C143.406 26.8428 144.045 28.4203 145.182 29.5833C146.319 30.7464 147.861 31.3998 149.469 31.3998C151.077 31.3998 152.619 30.7464 153.756 29.5833C154.893 28.4203 155.531 26.8428 155.531 25.198C155.531 23.5531 154.893 21.9757 153.756 20.8126C152.619 19.6495 151.077 18.9961 149.469 18.9961C147.861 18.9961 146.319 19.6495 145.182 20.8126C144.045 21.9757 143.406 23.5531 143.406 25.198ZM48 41.9174C48 43.5623 48.6387 45.1397 49.7757 46.3028C50.9126 47.4659 52.4546 48.1193 54.0625 48.1193C55.6704 48.1193 57.2124 47.4659 58.3493 46.3028C59.4863 45.1397 60.125 43.5623 60.125 41.9174C60.125 40.2726 59.4863 38.6951 58.3493 37.532C57.2124 36.369 55.6704 35.7156 54.0625 35.7156C52.4546 35.7156 50.9126 36.369 49.7757 37.532C48.6387 38.6951 48 40.2726 48 41.9174ZM155.5 51.3161C155.5 52.2573 155.865 53.1598 156.516 53.8253C157.166 54.4908 158.049 54.8646 158.969 54.8646C159.889 54.8646 160.771 54.4908 161.422 53.8253C162.072 53.1598 162.438 52.2573 162.438 51.3161C162.438 50.375 162.072 49.4724 161.422 48.807C160.771 48.1415 159.889 47.7676 158.969 47.7676C158.049 47.7676 157.166 48.1415 156.516 48.807C155.865 49.4724 155.5 50.375 155.5 51.3161ZM44.5625 73.0546C44.5625 73.9958 44.928 74.8983 45.5785 75.5638C46.229 76.2293 47.1113 76.6031 48.0312 76.6031C48.9512 76.6031 49.8335 76.2293 50.484 75.5638C51.1345 74.8983 51.5 73.9958 51.5 73.0546C51.5 72.1135 51.1345 71.211 50.484 70.5455C49.8335 69.88 48.9512 69.5062 48.0312 69.5062C47.1113 69.5062 46.229 69.88 45.5785 70.5455C44.928 71.211 44.5625 72.1135 44.5625 73.0546Z" fill="#2F4699"/>
<path d="M145.182 29.5833C144.045 28.4203 143.406 26.8428 143.406 25.198C143.406 23.5531 144.045 21.9757 145.182 20.8126C146.319 19.6495 147.861 18.9961 149.469 18.9961C151.077 18.9961 152.619 19.6495 153.756 20.8126C154.893 21.9757 155.531 23.5531 155.531 25.198C155.531 26.8428 154.893 28.4203 153.756 29.5833C152.619 30.7464 151.077 31.3998 149.469 31.3998C147.861 31.3998 146.319 30.7464 145.182 29.5833Z" fill="#2F4699"/>
<path d="M143.406 25.198C143.406 26.8428 144.045 28.4203 145.182 29.5833C146.319 30.7464 147.861 31.3998 149.469 31.3998C151.077 31.3998 152.619 30.7464 153.756 29.5833C154.893 28.4203 155.531 26.8428 155.531 25.198C155.531 23.5531 154.893 21.9757 153.756 20.8126C152.619 19.6495 151.077 18.9961 149.469 18.9961C147.861 18.9961 146.319 19.6495 145.182 20.8126C144.045 21.9757 143.406 23.5531 143.406 25.198ZM48 41.9174C48 43.5623 48.6387 45.1397 49.7757 46.3028C50.9126 47.4659 52.4546 48.1193 54.0625 48.1193C55.6704 48.1193 57.2124 47.4659 58.3493 46.3028C59.4863 45.1397 60.125 43.5623 60.125 41.9174C60.125 40.2726 59.4863 38.6951 58.3493 37.532C57.2124 36.369 55.6704 35.7156 54.0625 35.7156C52.4546 35.7156 50.9126 36.369 49.7757 37.532C48.6387 38.6951 48 40.2726 48 41.9174ZM155.5 51.3161C155.5 52.2573 155.865 53.1598 156.516 53.8253C157.166 54.4908 158.049 54.8646 158.969 54.8646C159.889 54.8646 160.771 54.4908 161.422 53.8253C162.072 53.1598 162.438 52.2573 162.438 51.3161C162.438 50.375 162.072 49.4724 161.422 48.807C160.771 48.1415 159.889 47.7676 158.969 47.7676C158.049 47.7676 157.166 48.1415 156.516 48.807C155.865 49.4724 155.5 50.375 155.5 51.3161ZM44.5625 73.0546C44.5625 73.9958 44.928 74.8983 45.5785 75.5638C46.229 76.2293 47.1113 76.6031 48.0312 76.6031C48.9512 76.6031 49.8335 76.2293 50.484 75.5638C51.1345 74.8983 51.5 73.9958 51.5 73.0546C51.5 72.1135 51.1345 71.211 50.484 70.5455C49.8335 69.88 48.9512 69.5062 48.0312 69.5062C47.1113 69.5062 46.229 69.88 45.5785 70.5455C44.928 71.211 44.5625 72.1135 44.5625 73.0546Z" stroke="#0D041A" stroke-linecap="round" stroke-linejoin="round"/>
<path d="M145.182 29.5833C144.045 28.4203 143.406 26.8428 143.406 25.198C143.406 23.5531 144.045 21.9757 145.182 20.8126C146.319 19.6495 147.861 18.9961 149.469 18.9961C151.077 18.9961 152.619 19.6495 153.756 20.8126C154.893 21.9757 155.531 23.5531 155.531 25.198C155.531 26.8428 154.893 28.4203 153.756 29.5833C152.619 30.7464 151.077 31.3998 149.469 31.3998C147.861 31.3998 146.319 30.7464 145.182 29.5833Z" stroke="#0D041A" stroke-linecap="round" stroke-linejoin="round"/>
<path d="M123.063 120.24C123.063 120.24 132.844 123.788 140.344 120.24C143.293 118.742 145.804 116.476 147.625 113.67C149.447 110.864 150.514 107.617 150.719 104.256C151.281 99.0768 158.5 96.871 161.094 104.256C162.781 109.743 162.682 115.642 160.811 121.067C158.94 126.492 155.399 131.149 150.719 134.338C144.981 137.742 138.524 139.68 131.898 139.986C125.272 140.292 118.671 138.958 112.656 136.096C103.438 131.301 123.063 120.24 123.063 120.24ZM76.8125 120.24C76.8125 120.24 67 123.692 59.375 120.24C56.4261 118.742 53.9147 116.476 52.0934 113.67C50.2722 110.864 49.2053 107.617 49 104.256C48.4375 99.0768 41.2188 96.871 38.625 104.256C36.9374 109.743 37.0366 115.642 38.9075 121.067C40.7784 126.492 44.3201 131.149 49 134.338C54.738 137.742 61.1943 139.68 67.8208 139.986C74.4472 140.292 81.048 138.958 87.0625 136.096C96.4063 131.301 76.8125 120.24 76.8125 120.24Z" fill="#0B257F"/>
<path d="M112.656 136.16L113.938 136.768C116.745 134.223 119.803 131.984 123.063 130.086C123.063 130.086 132.844 133.603 140.344 130.086C143.293 128.588 145.804 126.323 147.625 123.517C149.447 120.711 150.514 117.464 150.719 114.102C151.281 108.923 158.5 106.717 161.094 114.102C161.421 115.027 161.672 115.979 161.844 116.947C162.667 112.689 162.408 108.287 161.094 104.16C158.5 96.7753 151.281 98.9811 150.719 104.16C150.514 107.522 149.447 110.769 147.625 113.574C145.804 116.38 143.293 118.646 140.344 120.144C132.844 123.693 123.063 120.144 123.063 120.144C123.063 120.144 103.438 131.301 112.656 136.16ZM38.7501 114.262C41.3439 106.877 48.5626 109.083 49.1251 114.262C49.3447 117.583 50.4052 120.788 52.2023 123.562C53.9995 126.337 56.4714 128.585 59.3751 130.086C66.8751 133.603 76.6876 130.086 76.6876 130.086C79.9381 131.962 82.9952 134.168 85.8126 136.672L87.0626 136.064C96.4376 131.205 76.6876 120.08 76.6876 120.08C76.6876 120.08 67.0001 123.693 59.3751 120.24C56.4262 118.742 53.9148 116.476 52.0935 113.67C50.2723 110.864 49.2053 107.617 49.0001 104.256C48.4376 99.077 41.2189 96.8712 38.6251 104.256C37.3413 108.389 37.0836 112.783 37.8751 117.043C38.1193 116.101 38.4113 115.173 38.7501 114.262Z" fill="#2F4699"/>
<path d="M123.063 120.24C123.063 120.24 132.844 123.788 140.344 120.24C143.293 118.742 145.804 116.476 147.625 113.67C149.447 110.864 150.514 107.617 150.719 104.256C151.281 99.0768 158.5 96.871 161.094 104.256C162.781 109.743 162.682 115.642 160.811 121.067C158.94 126.492 155.399 131.149 150.719 134.338C144.981 137.742 138.524 139.68 131.898 139.986C125.272 140.292 118.671 138.958 112.656 136.096C103.438 131.301 123.063 120.24 123.063 120.24ZM76.8125 120.24C76.8125 120.24 67 123.692 59.375 120.24C56.4261 118.742 53.9147 116.476 52.0934 113.67C50.2722 110.864 49.2053 107.617 49 104.256C48.4375 99.0768 41.2188 96.871 38.625 104.256C36.9374 109.743 37.0366 115.642 38.9075 121.067C40.7784 126.492 44.3201 131.149 49 134.338C54.738 137.742 61.1943 139.68 67.8208 139.986C74.4472 140.292 81.048 138.958 87.0625 136.096C96.4063 131.301 76.8125 120.24 76.8125 120.24Z" stroke="#0B257F" stroke-linecap="round" stroke-linejoin="round"/>
<path d="M139.719 103.105C139.719 113.898 135.528 124.249 128.067 131.881C120.607 139.513 110.488 143.801 99.9375 143.801C89.3869 143.801 79.2683 139.513 71.8079 131.881C64.3475 124.249 60.1563 113.898 60.1562 103.105C60.1563 75.2604 77.9687 58.8926 99.9375 58.8926C121.906 58.8926 139.719 75.2604 139.719 103.105Z" fill="#2F4699"/>
<path d="M100 73.0546C119.812 73.0546 136.219 86.4174 139.219 109.531C139.579 107.419 139.767 105.28 139.781 103.137C139.781 75.2924 121.969 58.9246 100 58.9246C78.0312 58.9246 60.1562 75.2604 60.1562 103.105C60.1755 105.247 60.3531 107.384 60.6875 109.499C63.6875 86.4174 80.0937 73.0546 100 73.0546Z" fill="#0B257F"/>
<path d="M139.719 103.105C139.719 113.898 135.528 124.249 128.067 131.881C120.607 139.513 110.488 143.801 99.9375 143.801C89.3869 143.801 79.2683 139.513 71.8079 131.881C64.3475 124.249 60.1563 113.898 60.1562 103.105C60.1563 75.2604 77.9687 58.8926 99.9375 58.8926C121.906 58.8926 139.719 75.2604 139.719 103.105Z" stroke="#0B257F" stroke-linecap="round" stroke-linejoin="round"/>
<path d="M120.687 124.364C114.437 123.597 110.75 131.429 99.9375 131.429C89.125 131.429 85.5 123.693 79.1875 124.364C77.4089 124.753 75.7315 125.524 74.2661 126.627C72.8008 127.729 71.581 129.137 70.6875 130.758C74.4129 134.892 78.9354 138.192 83.9697 140.449C89.0041 142.706 94.441 143.871 99.9375 143.871C105.434 143.871 110.871 142.706 115.905 140.449C120.94 138.192 125.462 134.892 129.188 130.758C128.294 129.137 127.074 127.729 125.609 126.627C124.144 125.524 122.466 124.753 120.687 124.364Z" fill="#0B257F" stroke="#0B257F" stroke-linecap="round" stroke-linejoin="round"/>
<path d="M94.3971 142.646C94.3971 142.646 91.4283 156.232 71.8346 156.232C52.2408 156.232 44.5221 143.093 43.9908 135.868C43.4596 128.644 51.4283 123.305 57.2408 130.434C65.6471 140.728 72.4908 139.481 77.1471 133.151C81.8033 126.821 94.3971 142.646 94.3971 142.646Z" fill="#0B257F"/>
<path d="M44.7188 136.48L45.75 137.023C62.6875 147.317 76.5313 146.07 85.9063 139.741C87.5318 138.758 89.3935 138.26 91.2813 138.302C87.1875 134.114 80.8125 128.712 77.7813 132.995C73.125 139.389 66.2813 140.572 57.875 130.278C52.0625 123.149 44.0625 128.456 44.625 135.713C44.6428 135.97 44.674 136.226 44.7188 136.48Z" fill="#2F4699"/>
<path d="M95.0313 142.618C95.0313 142.618 92.0626 156.204 72.4688 156.204C52.8751 156.204 45.1563 143.065 44.6251 135.841C44.0938 128.616 52.0626 123.277 57.8751 130.406C66.2813 140.7 73.1251 139.453 77.7813 133.123C82.4376 126.794 95.0313 142.618 95.0313 142.618Z" stroke="#0B257F" stroke-linecap="round" stroke-linejoin="round"/>
<path d="M104.178 142.646C104.178 142.646 107.303 156.232 126.741 156.232C146.178 156.232 154.053 143.093 154.616 135.868C155.178 128.644 147.147 123.305 141.334 130.434C132.928 140.728 126.084 139.481 121.428 133.151C116.772 126.821 104.178 142.646 104.178 142.646Z" fill="#0B257F"/>
<path d="M155.156 136.48L154.094 137.023C137.156 147.317 123.344 146.07 113.969 139.741C112.342 138.761 110.481 138.263 108.594 138.302C112.687 134.114 119.062 128.712 122.062 132.995C126.719 139.389 133.562 140.572 141.969 130.278C147.781 123.149 155.812 128.456 155.25 135.713L155.156 136.48Z" fill="#2F4699"/>
<path d="M104.812 142.618C104.812 142.618 107.937 156.204 127.375 156.204C146.812 156.204 154.687 143.065 155.25 135.841C155.812 128.616 147.781 123.277 141.969 130.406C133.562 140.7 126.719 139.453 122.062 133.123C117.406 126.794 104.812 142.618 104.812 142.618Z" stroke="#0B257F" stroke-linecap="round" stroke-linejoin="round"/>
<path d="M84.3438 106.653C84.3438 107.595 84.7092 108.497 85.3597 109.163C86.0102 109.828 86.8925 110.202 87.8125 110.202C88.7325 110.202 89.6148 109.828 90.2653 109.163C90.9158 108.497 91.2812 107.595 91.2812 106.653C91.2812 105.712 90.9158 104.81 90.2653 104.144C89.6148 103.479 88.7325 103.105 87.8125 103.105C86.8925 103.105 86.0102 103.479 85.3597 104.144C84.7092 104.81 84.3438 105.712 84.3438 106.653ZM108.562 106.653C108.562 107.595 108.928 108.497 109.578 109.163C110.229 109.828 111.111 110.202 112.031 110.202C112.951 110.202 113.834 109.828 114.484 109.163C115.135 108.497 115.5 107.595 115.5 106.653C115.5 105.712 115.135 104.81 114.484 104.144C113.834 103.479 112.951 103.105 112.031 103.105C111.111 103.105 110.229 103.479 109.578 104.144C108.928 104.81 108.562 105.712 108.562 106.653Z" fill="#0D041A" stroke="#0D041A" stroke-linecap="round" stroke-linejoin="round"/>
<path d="M120.688 115.509C120.688 115.928 120.822 116.344 121.082 116.732C121.343 117.12 121.725 117.472 122.207 117.769C122.689 118.066 123.26 118.301 123.89 118.462C124.519 118.623 125.194 118.705 125.875 118.705C126.556 118.705 127.231 118.623 127.86 118.462C128.49 118.301 129.061 118.066 129.543 117.769C130.025 117.472 130.407 117.12 130.668 116.732C130.928 116.344 131.062 115.928 131.062 115.509C131.062 114.661 130.516 113.848 129.543 113.248C128.57 112.649 127.251 112.312 125.875 112.312C124.499 112.312 123.18 112.649 122.207 113.248C121.234 113.848 120.688 114.661 120.688 115.509ZM68.8125 115.509C68.8125 116.356 69.359 117.17 70.3319 117.769C71.3047 118.369 72.6242 118.705 74 118.705C75.3758 118.705 76.6953 118.369 77.6681 117.769C78.641 117.17 79.1875 116.356 79.1875 115.509C79.1875 114.661 78.641 113.848 77.6681 113.248C76.6953 112.649 75.3758 112.312 74 112.312C72.6242 112.312 71.3047 112.649 70.3319 113.248C69.359 113.848 68.8125 114.661 68.8125 115.509Z" fill="#0B257F"/>
<path d="M143.406 68.1955C143.406 69.1366 143.772 70.0392 144.422 70.7046C145.073 71.3701 145.955 71.744 146.875 71.744C147.795 71.744 148.677 71.3701 149.328 70.7046C149.978 70.0392 150.344 69.1366 150.344 68.1955C150.344 67.2543 149.978 66.3518 149.328 65.6863C148.677 65.0208 147.795 64.647 146.875 64.647C145.955 64.647 145.073 65.0208 144.422 65.6863C143.772 66.3518 143.406 67.2543 143.406 68.1955Z" fill="#2F4699" stroke="#0D041A" stroke-linecap="round" stroke-linejoin="round"/>
<path opacity="0.15" d="M60.1563 159.145C60.1562 159.842 61.1852 160.532 63.1844 161.176C65.1836 161.82 68.1139 162.405 71.8079 162.898C75.5019 163.391 79.8874 163.781 84.7139 164.048C89.5404 164.315 94.7134 164.452 99.9375 164.452C105.162 164.452 110.335 164.315 115.161 164.048C119.988 163.781 124.373 163.391 128.067 162.898C131.761 162.405 134.691 161.82 136.691 161.176C138.69 160.532 139.719 159.842 139.719 159.145C139.719 158.448 138.69 157.758 136.691 157.115C134.691 156.471 131.761 155.886 128.067 155.393C124.373 154.9 119.988 154.509 115.161 154.243C110.335 153.976 105.162 153.839 99.9375 153.839C94.7134 153.839 89.5404 153.976 84.7139 154.243C79.8874 154.509 75.5019 154.9 71.8079 155.393C68.1139 155.886 65.1836 156.471 63.1844 157.115C61.1852 157.758 60.1562 158.448 60.1563 159.145Z" fill="#0D041A"/>
</svg>
